<svg xmlns="http://www.w3.org/2000/svg" xmlns:xlink="http://www.w3.org/1999/xlink" width="916.655" height="664.203" viewBox="0 0 916.655 664.203">
  <defs>
    <linearGradient id="linear-gradient" x2="1" y2="1" gradientUnits="objectBoundingBox">
      <stop offset="0" stop-color="#f4dba0"/>
      <stop offset="1" stop-color="#a58750"/>
    </linearGradient>
    <linearGradient id="linear-gradient-5" y1="0.5" x2="1" y2="0.5" gradientUnits="objectBoundingBox">
      <stop offset="0" stop-color="#4944a8"/>
      <stop offset="1" stop-color="#302b92"/>
    </linearGradient>
    <linearGradient id="linear-gradient-7" x1="0.396" y1="0.946" x2="0.498" y2="0.438" gradientUnits="objectBoundingBox">
      <stop offset="0" stop-color="#f9c795"/>
      <stop offset="1" stop-color="#fee3c2"/>
    </linearGradient>
    <linearGradient id="linear-gradient-8" x1="0.878" y1="0.593" x2="0.353" y2="0.343" gradientUnits="objectBoundingBox">
      <stop offset="0" stop-color="#8bb8f8"/>
      <stop offset="1" stop-color="#cce0ff"/>
    </linearGradient>
    <linearGradient id="linear-gradient-9" x1="1.077" y1="0.668" x2="0.184" y2="0.449" xlink:href="#linear-gradient-8"/>
    <linearGradient id="linear-gradient-10" x1="0.376" y1="0.558" x2="1.18" y2="0.362" gradientUnits="objectBoundingBox">
      <stop offset="0" stop-color="#92594f"/>
      <stop offset="1" stop-color="#db866a"/>
    </linearGradient>
    <linearGradient id="linear-gradient-11" x1="0.864" y1="0.704" x2="0.013" y2="0.004" xlink:href="#linear-gradient-10"/>
    <linearGradient id="linear-gradient-12" x1="0.425" y1="0.436" x2="0.605" y2="1.273" xlink:href="#linear-gradient-7"/>
    <linearGradient id="linear-gradient-13" x1="1.143" y1="1.038" x2="0.446" y2="0.466" xlink:href="#linear-gradient-7"/>
    <linearGradient id="linear-gradient-14" x1="0.576" y1="0.658" x2="0.467" y2="0.403" xlink:href="#linear-gradient-7"/>
    <linearGradient id="linear-gradient-15" x1="1.073" y1="0.524" x2="0.099" y2="0.49" xlink:href="#linear-gradient-8"/>
    <linearGradient id="linear-gradient-16" x1="0.424" y1="0.925" x2="0.773" y2="0.01" gradientUnits="objectBoundingBox">
      <stop offset="0" stop-color="#494443"/>
      <stop offset="1" stop-color="#66605f"/>
    </linearGradient>
    <linearGradient id="linear-gradient-17" y1="0.5" x2="1" y2="0.5" gradientUnits="objectBoundingBox">
      <stop offset="0" stop-color="#302b92"/>
      <stop offset="1" stop-color="#4944a8"/>
    </linearGradient>
    <linearGradient id="linear-gradient-18" x1="0.708" y1="0.574" x2="0.443" y2="0.435" gradientUnits="objectBoundingBox">
      <stop offset="0" stop-color="#e07288"/>
      <stop offset="1" stop-color="#f49f90"/>
    </linearGradient>
    <linearGradient id="linear-gradient-19" x1="0.402" y1="0.985" x2="0.565" y2="0.117" gradientUnits="objectBoundingBox">
      <stop offset="0" stop-color="#fabd3d"/>
      <stop offset="1" stop-color="#ffe288"/>
    </linearGradient>
    <linearGradient id="linear-gradient-20" x1="0.47" y1="0.26" x2="0.529" y2="1.095" xlink:href="#linear-gradient-18"/>
    <linearGradient id="linear-gradient-21" x1="-0.076" y1="0.955" x2="0.627" y2="0.554" xlink:href="#linear-gradient-18"/>
    <linearGradient id="linear-gradient-22" x1="0.318" y1="0.693" x2="0.595" y2="0.501" xlink:href="#linear-gradient-18"/>
    <linearGradient id="linear-gradient-25" x1="0.5" y1="1.061" x2="0.5" y2="0.197" gradientUnits="objectBoundingBox">
      <stop offset="0" stop-color="#f7376a"/>
      <stop offset="1" stop-color="#f7726a"/>
    </linearGradient>
    <linearGradient id="linear-gradient-26" x1="0.644" y1="0.708" x2="0.181" y2="0.086" gradientUnits="objectBoundingBox">
      <stop offset="0" stop-color="#faaba8"/>
      <stop offset="1" stop-color="#fee3d1"/>
    </linearGradient>
    <linearGradient id="linear-gradient-27" x1="0.506" y1="0.488" x2="0.539" y2="1.172" xlink:href="#linear-gradient-26"/>
    <linearGradient id="linear-gradient-28" x1="-1.636" y1="-12.732" x2="-0.635" y2="-12.732" xlink:href="#linear-gradient-26"/>
    <linearGradient id="linear-gradient-29" x1="-0.431" y1="-3" x2="-1.601" y2="-3.488" xlink:href="#linear-gradient-26"/>
    <linearGradient id="linear-gradient-30" x1="-0.888" y1="-3.895" x2="-0.888" y2="-4.781" gradientUnits="objectBoundingBox">
      <stop offset="0" stop-color="#773d4f"/>
      <stop offset="1" stop-color="#ab5656"/>
    </linearGradient>
    <linearGradient id="linear-gradient-31" x1="0.467" y1="0.944" x2="0.56" y2="-0.063" xlink:href="#linear-gradient-26"/>
  </defs>
  <g id="Group_40202" data-name="Group 40202" transform="translate(-78.671 -5233)">
    <path id="Path_29993" data-name="Path 29993" d="M1190.378,578.947l-.055,0a2.119,2.119,0,0,1-2.066-2.173c0-.016.011-.477.011-1.321,0-2.152-.076-6.651-.585-12.625a2.122,2.122,0,0,1,4.229-.359c.522,6.129.6,10.764.6,12.985,0,.931-.013,1.431-.013,1.431A2.125,2.125,0,0,1,1190.378,578.947Zm-4.611-39.349a2.124,2.124,0,0,1-2.06-1.623,130.693,130.693,0,0,0-3.969-13.352,2.123,2.123,0,0,1,4-1.434,136.14,136.14,0,0,1,4.1,13.789,2.119,2.119,0,0,1-1.565,2.558A2.048,2.048,0,0,1,1185.767,539.6Zm-15.525-36.206a2.122,2.122,0,0,1-1.736-.9,65.518,65.518,0,0,0-8.976-10.3,2.121,2.121,0,0,1,2.879-3.117,69.886,69.886,0,0,1,9.563,10.966,2.119,2.119,0,0,1-1.73,3.345Zm-31.047-23.3a2.1,2.1,0,0,1-.64-.1,62.992,62.992,0,0,0-13.362-2.632,2.123,2.123,0,0,1,.38-4.229,67.478,67.478,0,0,1,14.261,2.816,2.122,2.122,0,0,1-.639,4.145Zm-39.252-2.792h-.029c-4.808-.066-9.6-.249-14.248-.545a2.121,2.121,0,1,1,.27-4.234c4.577.291,9.3.472,14.036.538a2.121,2.121,0,0,1-.029,4.242Zm-39.441-3.421a2.073,2.073,0,0,1-.357-.029c-4.789-.807-9.5-1.764-14.007-2.847a2.121,2.121,0,1,1,.991-4.124c4.409,1.059,9.026,2,13.721,2.787a2.121,2.121,0,0,1-.349,4.213Zm-38.112-10.531a2.1,2.1,0,0,1-.8-.157,138.868,138.868,0,0,1-13-6.082,2.12,2.12,0,1,1,2-3.741,135.685,135.685,0,0,0,12.607,5.9,2.12,2.12,0,0,1-.8,4.084ZM988.6,443.076a2.115,2.115,0,0,1-1.387-.516A103.67,103.67,0,0,1,976.988,432.4a2.122,2.122,0,0,1,3.2-2.792,99.386,99.386,0,0,0,9.8,9.736,2.123,2.123,0,0,1-1.387,3.728Zm-24.1-31.018a2.12,2.12,0,0,1-1.9-1.174,109.946,109.946,0,0,1-5.539-13.281,2.121,2.121,0,1,1,4.013-1.374A105.319,105.319,0,0,0,966.4,408.99a2.123,2.123,0,0,1-1.9,3.067Zm-11.123-37.745a2.126,2.126,0,0,1-2.1-1.848c-.6-4.59-1-9.385-1.2-14.253a2.123,2.123,0,0,1,4.242-.17c.189,4.74.579,9.409,1.164,13.876a2.12,2.12,0,0,1-1.827,2.378A2.01,2.01,0,0,1,953.378,374.313Zm-.459-39.491a1.648,1.648,0,0,1-.194-.01,2.12,2.12,0,0,1-1.921-2.3c.417-4.6.991-9.367,1.706-14.161a2.12,2.12,0,1,1,4.194.627c-.7,4.713-1.266,9.4-1.675,13.915A2.121,2.121,0,0,1,952.92,334.822Zm6.551-39.019a2.247,2.247,0,0,1-.49-.055,2.124,2.124,0,0,1-1.576-2.553c1.064-4.5,2.26-9.131,3.552-13.773a2.122,2.122,0,1,1,4.089,1.138c-1.279,4.59-2.461,9.17-3.513,13.611A2.122,2.122,0,0,1,959.471,295.8Z" transform="translate(-712.351 5210.28)" fill="#eed59a"/>
    <g id="Group_40187" data-name="Group 40187" transform="translate(303.357 5563.304)">
      <g id="Group_40182" data-name="Group 40182" transform="translate(82.829)">
        <path id="Path_29956" data-name="Path 29956" d="M1239.515,717.082h-60.66l-4.9-.918s-7.579-14.211-22.338-32.649c-16.558-20.658-39.934-46.165-27.985-54.331,11.163-7.631,14.4-8.323-2.343-31.034-16.77-22.7-22.446-40.414-13.747-45.489s21.392.307,20.674-12.478c-.721-12.762-24.734-30.73-34.832-54.227-10.083-23.51,2.944-29.623,6.887-29.036s22.152,10.03,20.925-4.9-3.263-49.484,9.39-53.985,32.46,18.262,34.4,45.966c1.932,27.72,12.3,32.9,21.166,28.53s14.385-.346,18.367,10.137-14.956,65.947-7.831,70.357,16.477-20.621,27.917-17.223c7.833,2.331,6.116,21.5,1.547,40.587a221.728,221.728,0,0,1-7.487,24.76c-8.418,22.537-.359,37.375,12.853,31.993,13.189-5.379,16.026,5.927,17.132,17.077C1249.64,660.274,1240.755,683.689,1239.515,717.082Z" transform="translate(-1089.637 -397.466)" stroke="rgba(0,0,0,0)" stroke-width="1" fill="url(#linear-gradient)"/>
        <g id="Group_40181" data-name="Group 40181" transform="translate(46.344 35.413)">
          <path id="Path_29957" data-name="Path 29957" d="M1109.217,412c.023-.351.052-.695.089-1.022A7.584,7.584,0,0,0,1109.217,412Z" transform="translate(-1104.231 -410.975)" fill="#fff"/>
          <path id="Path_29958" data-name="Path 29958" d="M1116.086,422.048c-.121-.841-.265-1.652-.443-2.412C1115.643,419.636,1115.811,420.527,1116.086,422.048Z" transform="translate(-1093.811 -396.931)" fill="#fff"/>
          <path id="Path_29959" data-name="Path 29959" d="M1182.519,694.544h-12.027c-.692-4.436-1.56-9.348-2.624-14.61-18.993-16.838-35.257-46.821-36.256-48.671a124.165,124.165,0,0,0,33.259,35.178,269.147,269.147,0,0,0-13.281-40.746c-12.148-28.625-19.247-46.658-22.564-62.883-15.131-7.912-21.46-33.765-21.712-34.777,6.313,15.929,15.318,24.307,20.553,28.1a112.351,112.351,0,0,1-1.08-19.766c.441-15.624,2.97-29.261,3.143-42.516-13.9-13.4-21.963-38.122-22.443-39.653a79.373,79.373,0,0,0,22.257,32.2,66.531,66.531,0,0,0-3.956-19.061c-8.072-21.738-14.251-44.621-13.493-55.97-.118,3.277.627,15,13.16,41.57,1.159,2.506,2.213,4.769,3.169,6.9.842-5.741,2.092-16.555.972-24.375,1.306,7.285,5.023,29.025,3.851,36.549,4.569,14.12,3.036,24.349,1.478,60.154-.548,12.628,2,25.841,6.019,39.079,4.876-7.125,12.256-18.927,14.146-27.812a85.428,85.428,0,0,1-12.08,34.245c7.354,21.685,18.007,43.156,25.067,61.87,1.652-6.525,3.6-16.169,3.623-25.361.134,1.253,2.144,21.6.333,36.882A359.151,359.151,0,0,1,1182.519,694.544Z" transform="translate(-1107.315 -410.341)" fill="#fff" opacity="0.51"/>
        </g>
      </g>
      <g id="Group_40183" data-name="Group 40183" transform="translate(0 88.242)">
        <path id="Path_29960" data-name="Path 29960" d="M1235.2,645.165l-.223,17.315H1156.56s-12.237-6.824-19.174-14.282c-2.834-3.046-4.787-6.2-4.658-9.034.191-4.179,4.517-8.032,8.061-11.7,4-4.134,6.992-8.029,1.95-11.889a19.971,19.971,0,0,0-3.788-2.194c-17.337-8-30.491-11.524-27.56-21.782,2.666-9.335,13.318-17.459.443-20.451-19.114-4.443-32.449-19.114-29.784-29.783,1.953-7.81,20.448-4.446,13.336-16.448s-37.784-21.782-37.341-37.341,20-4.446,20.451-12.893-20-19.559-12.893-35.564,28.894-5.335,40.007,8.892,13.338,11.113,19.116,5.778,14.67-4.889,17.782,20,6.223,36.9,18.671,34.675,16.447,15.113,12.893,32.449,1.777,32.009,14.667,28.006a17.822,17.822,0,0,1,5.148-.9c8.224-.026,9.572,8.593,11.079,18.013,1.777,11.113-2.669,32.895,13.336,34.229S1235.2,645.165,1235.2,645.165Z" transform="translate(-1058.041 -431.127)" stroke="rgba(0,0,0,0)" stroke-width="1" fill="url(#linear-gradient)"/>
        <path id="Path_29961" data-name="Path 29961" d="M1168.025,613.455l.055.06s8.541-18.115.1-37.674c0,0,5.993,14.093-3.45,33.941l.029.034c-.894-.946-1.825-1.9-2.8-2.858-18.442-18.081-28.208-37.483-35.275-63,11.658-8.195,12.6-25.022,12.6-25.022-2.952,10.035-9.527,17.42-13.614,21.255-1.232-4.724-2.388-9.645-3.5-14.809-3.55-16.495-11.464-28.525-20.516-40.057l.068.047c4.443-14.224-4.446-32.006-4.446-32.006,5.1,14.219,2.734,25.143,1.714,28.614-9.537-11.839-19.958-23.552-27.715-39.5.189.467,6.5,15.546,24.223,39.776,11.2,15.32,16.526,25.23,19.96,35.233-3.712-.621-21.012-4.168-27.741-17.229,0,0,7.49,18.495,29.039,21.3,2.427,8.2,3.972,16.943,6.748,29.157,5.138,22.608,25.56,49.122,33.561,58.012,6.038,6.708,15.365,16.2,18.627,35.341h8.063C1182.745,638.186,1179.353,626.717,1168.025,613.455Z" transform="translate(-1036.587 -412.703)" fill="#fff"/>
      </g>
      <g id="Group_40185" data-name="Group 40185" transform="translate(216.318)">
        <path id="Path_29962" data-name="Path 29962" d="M1149.771,717.082h60.66l4.9-.918s7.579-14.211,22.338-32.649c16.558-20.658,39.934-46.165,27.985-54.331-11.162-7.631-14.4-8.323,2.344-31.034,16.77-22.7,22.446-40.414,13.747-45.489s-21.391.307-20.673-12.478c.721-12.762,24.737-30.73,34.832-54.227s-2.944-29.623-6.887-29.036-22.152,10.03-20.925-4.9,3.264-49.484-9.391-53.985S1226.242,416.3,1224.3,444c-1.932,27.72-12.295,32.9-21.166,28.53s-14.384-.346-18.366,10.137,14.958,65.947,7.83,70.357-16.477-20.621-27.917-17.223c-7.833,2.331-6.116,21.5-1.547,40.587a222.083,222.083,0,0,0,7.488,24.76c8.417,22.537.359,37.375-12.854,31.993-13.189-5.379-16.025,5.927-17.131,17.077C1139.65,660.274,1148.531,683.689,1149.771,717.082Z" transform="translate(-1140.557 -397.466)" stroke="rgba(0,0,0,0)" stroke-width="1" fill="url(#linear-gradient)"/>
        <g id="Group_40184" data-name="Group 40184" transform="translate(37.545 35.413)">
          <path id="Path_29963" data-name="Path 29963" d="M1181.719,412c-.023-.351-.052-.695-.089-1.022A7.522,7.522,0,0,1,1181.719,412Z" transform="translate(-1111.501 -410.975)" fill="#fff"/>
          <path id="Path_29964" data-name="Path 29964" d="M1175.069,422.048c.121-.841.265-1.652.446-2.412C1175.515,419.636,1175.344,420.527,1175.069,422.048Z" transform="translate(-1122.14 -396.931)" fill="#fff"/>
          <path id="Path_29965" data-name="Path 29965" d="M1154.879,694.544h12.028c.692-4.436,1.56-9.348,2.624-14.61,19-16.838,35.257-46.821,36.258-48.671a124.2,124.2,0,0,1-33.262,35.178,269.478,269.478,0,0,1,13.281-40.746c12.148-28.625,19.248-46.658,22.564-62.883,15.132-7.912,21.459-33.765,21.711-34.777-6.313,15.929-15.318,24.307-20.553,28.1a112.387,112.387,0,0,0,1.08-19.766c-.44-15.624-2.97-29.261-3.143-42.516,13.9-13.4,21.963-38.122,22.443-39.653a79.377,79.377,0,0,1-22.257,32.2,66.478,66.478,0,0,1,3.956-19.061c8.071-21.738,14.25-44.621,13.493-55.97.12,3.277-.627,15-13.16,41.57-1.159,2.506-2.213,4.769-3.17,6.9-.841-5.741-2.092-16.555-.972-24.375-1.306,7.285-5.023,29.025-3.851,36.549-4.567,14.12-3.036,24.349-1.479,60.154.547,12.628-2,25.841-6.019,39.079-4.876-7.125-12.256-18.927-14.146-27.812a85.413,85.413,0,0,0,12.08,34.245c-7.351,21.685-18.007,43.156-25.067,61.87-1.652-6.525-3.6-16.169-3.622-25.361-.134,1.253-2.145,21.6-.333,36.882A359.109,359.109,0,0,0,1154.879,694.544Z" transform="translate(-1154.879 -410.341)" fill="#fff" opacity="0.51"/>
        </g>
      </g>
      <g id="Group_40186" data-name="Group 40186" transform="translate(281.085 88.242)">
        <path id="Path_29966" data-name="Path 29966" d="M1165.263,645.165l.223,17.315H1243.9s12.238-6.824,19.174-14.282c2.834-3.046,4.787-6.2,4.659-9.034-.192-4.179-4.517-8.032-8.061-11.7-4-4.134-6.991-8.029-1.95-11.889a20.055,20.055,0,0,1,3.788-2.194c17.336-8,30.491-11.524,27.56-21.782-2.666-9.335-13.317-17.459-.443-20.451,19.114-4.443,32.449-19.114,29.784-29.783-1.951-7.81-20.448-4.446-13.336-16.448s37.784-21.782,37.341-37.341-20-4.446-20.448-12.893,20-19.559,12.89-35.564-28.895-5.335-40.007,8.892-13.339,11.113-19.116,5.778-14.67-4.889-17.782,20-6.224,36.9-18.671,34.675-16.447,15.113-12.89,32.449-1.78,32.009-14.67,28.006a17.822,17.822,0,0,0-5.149-.9c-8.224-.026-9.571,8.593-11.079,18.013-1.778,11.113,2.669,32.895-13.336,34.229S1165.263,645.165,1165.263,645.165Z" transform="translate(-1165.263 -431.127)" stroke="rgba(0,0,0,0)" stroke-width="1" fill="url(#linear-gradient)"/>
        <path id="Path_29967" data-name="Path 29967" d="M1192.43,613.455l-.055.06s-8.541-18.115-.1-37.674c0,0-5.993,14.093,3.45,33.941l-.029.034q1.342-1.42,2.806-2.858c18.44-18.081,28.2-37.483,35.272-63-11.658-8.195-12.6-25.022-12.6-25.022,2.952,10.035,9.527,17.42,13.614,21.255,1.232-4.724,2.388-9.645,3.5-14.809,3.55-16.495,11.464-28.525,20.517-40.057l-.066.047c-4.446-14.224,4.444-32.006,4.444-32.006-5.1,14.219-2.735,25.143-1.714,28.614,9.54-11.839,19.958-23.552,27.717-39.5-.191.467-6.5,15.546-24.223,39.776-11.2,15.32-16.529,25.23-19.963,35.233,3.715-.621,21.014-4.168,27.741-17.229,0,0-7.49,18.495-29.039,21.3-2.428,8.2-3.972,16.943-6.746,29.157-5.138,22.608-25.562,49.122-33.563,58.012-6.037,6.708-15.365,16.2-18.626,35.341H1176.7C1177.71,638.186,1181.1,626.717,1192.43,613.455Z" transform="translate(-1146.712 -412.703)" fill="#fff"/>
      </g>
    </g>
    <g id="Group_40191" data-name="Group 40191" transform="translate(761.597 5543.85)">
      <path id="Path_29976" data-name="Path 29976" d="M1245.457,537.173s153.289,20.039,167.325-4.952S1306.46,489.868,1245.457,537.173Z" transform="translate(-1232.087 -200.382)" fill="#bda169"/>
      <path id="Path_29977" data-name="Path 29977" d="M1245.457,576.8s46.477-76.415,127.828-91.691,71.031,55.965,2.532,54.394S1245.457,576.8,1245.457,576.8Z" transform="translate(-1232.087 -240.005)" fill="#bda169"/>
      <path id="Path_29978" data-name="Path 29978" d="M1240.357,627.467s68.107-110.7,108.979-148.436,69.752-50.2,88.382-35.042,8.649,55.275-41.244,83.4-102.146,72.538-142.748,122.785Z" transform="translate(-1240.357 -313.387)" fill="#bda169"/>
      <path id="Path_29979" data-name="Path 29979" d="M1253.172,727.072s39.546-114.818,103.141-209.468c59.677-88.815,33.6-142.664-6.218-123.437-47.61,22.983-91.468,146.352-109.4,313.808Z" transform="translate(-1239.802 -390.281)" fill="#bda169"/>
      <g id="Group_40190" data-name="Group 40190" transform="translate(5.214 31.132)" opacity="0.63">
        <path id="Path_29980" data-name="Path 29980" d="M1253.233,529.87a4.233,4.233,0,0,1-.352-8.316c67.914-15.708,124.129-6.806,126.484-6.417a4.233,4.233,0,0,1-1.295,8.365l-.082-.013c-.558-.089-56.99-9-123.191,6.313A4.222,4.222,0,0,1,1253.233,529.87Z" transform="translate(-1230.588 -223.594)" fill="#fff"/>
        <path id="Path_29981" data-name="Path 29981" d="M1251.422,567.19a4.232,4.232,0,0,1-2.478-7.091,232.9,232.9,0,0,1,98.514-61.653c28.489-9.044,48.763-9.59,49.613-9.608a4.232,4.232,0,1,1,.189,8.462c-.981.024-79.881,2.708-142.142,68.605A4.237,4.237,0,0,1,1251.422,567.19Z" transform="translate(-1233.519 -261.601)" fill="#fff"/>
        <path id="Path_29982" data-name="Path 29982" d="M1248.593,620.606a4.272,4.272,0,0,1-1.457-.493,4.227,4.227,0,0,1-1.638-5.76c38.107-68.168,80.287-108.961,108.959-131.179,31.267-24.228,53.3-32.153,54.221-32.478a4.232,4.232,0,1,1,2.831,7.977h0c-.215.079-21.955,7.949-52.223,31.477-27.946,21.725-69.088,61.622-106.38,128.327A4.246,4.246,0,0,1,1248.593,620.606Z" transform="translate(-1238.11 -323.839)" fill="#fff"/>
        <path id="Path_29983" data-name="Path 29983" d="M1247.377,650.341a4.215,4.215,0,0,1-2.789-1.657l-2.242-2.988.774-2.142c32.318-89.662,67.565-165.7,110.925-239.309a4.239,4.239,0,0,1,7.314,4.289c-42.757,72.582-77.587,147.579-109.519,235.849a4.238,4.238,0,0,1-4.462,5.959Z" transform="translate(-1242.346 -402.156)" fill="#fff"/>
      </g>
    </g>
    <path id="Path_29990" data-name="Path 29990" d="M980.862,323.923l-.645-15.378a1.2,1.2,0,0,0-2.173-.663l-9.411,12.811a1.206,1.206,0,0,1-1.284.451l-22.611-6.113a1.2,1.2,0,0,1-.6-1.94l54.476-64.1a1.2,1.2,0,0,1,2.121.716l4.173,79.957a1.2,1.2,0,0,1-1.518,1.224l-21.636-5.851A1.2,1.2,0,0,1,980.862,323.923Z" transform="translate(-721.756 5162.763)" fill="#bda169"/>
    <path id="Path_29991" data-name="Path 29991" d="M1367.245,318.127l14.217,5.906a1.205,1.205,0,0,0,1.518-1.694l-7.644-13.936a1.2,1.2,0,0,1,.134-1.353l15.079-17.923a1.205,1.205,0,0,1,2.016.273l35.131,76.433a1.2,1.2,0,0,1-1.544,1.62L1351.9,337.506a1.2,1.2,0,0,1-.469-1.893l14.434-17.147A1.207,1.207,0,0,1,1367.245,318.127Z" transform="translate(-520.22 4953.07)" fill="#bda169"/>
    <path id="Path_29992" data-name="Path 29992" d="M1253.522,596.2h-.076a139.167,139.167,0,0,1-14.34-1.132,2.122,2.122,0,0,1,.629-4.2,137.811,137.811,0,0,0,13.858,1.088,2.121,2.121,0,0,1-.071,4.241Zm25.437-.786a2.121,2.121,0,0,1-.2-4.231c4.69-.456,9.351-1.093,13.852-1.89a2.122,2.122,0,0,1,.742,4.179c-4.611.815-9.382,1.468-14.182,1.935C1279.1,595.415,1279.027,595.418,1278.959,595.418Zm38.633-8.315a2.121,2.121,0,0,1-.7-4.121,130.436,130.436,0,0,0,12.858-5.311,2.121,2.121,0,1,1,1.83,3.827,134.975,134.975,0,0,1-13.275,5.484A2.147,2.147,0,0,1,1317.592,587.1Zm34.678-18.747a2.123,2.123,0,0,1-1.311-3.791,104.811,104.811,0,0,0,10.292-9.254,2.121,2.121,0,1,1,3.041,2.957,108.607,108.607,0,0,1-10.711,9.634A2.123,2.123,0,0,1,1352.27,568.356Zm25.72-29.744a2.12,2.12,0,0,1-1.856-3.143,86.051,86.051,0,0,0,5.636-12.575,2.122,2.122,0,1,1,4,1.423,90.111,90.111,0,0,1-5.917,13.2A2.124,2.124,0,0,1,1377.99,538.612Zm11.254-37.679a2.306,2.306,0,0,1-.233-.013,2.123,2.123,0,0,1-1.88-2.341c.48-4.349.776-8.908.91-13.931a2.124,2.124,0,0,1,2.121-2.066l.057,0a2.117,2.117,0,0,1,2.063,2.176c-.136,5.143-.443,9.812-.933,14.282A2.121,2.121,0,0,1,1389.244,500.933Zm.485-39.554a2.122,2.122,0,0,1-2.118-2.024c-.165-3.594-.356-7.225-.55-10.892l-.168-3.217a2.121,2.121,0,1,1,4.236-.22l.17,3.214c.191,3.675.382,7.317.551,10.919a2.124,2.124,0,0,1-2.024,2.218Zm-1.677-39.554a2.127,2.127,0,0,1-2.121-2.095q-.031-2.466-.034-4.947c0-3.2.047-6.318.138-9.286a2.077,2.077,0,0,1,2.187-2.055,2.124,2.124,0,0,1,2.055,2.184c-.092,2.926-.136,6.006-.136,9.157q0,2.454.034,4.889a2.124,2.124,0,0,1-2.092,2.152Zm2.241-39.493a2.033,2.033,0,0,1-.307-.021,2.123,2.123,0,0,1-1.8-2.4c.692-4.779,1.56-9.508,2.582-14.065a2.121,2.121,0,1,1,4.14.928c-1,4.451-1.845,9.073-2.522,13.745A2.12,2.12,0,0,1,1390.293,382.332Zm9.928-38.24a2.124,2.124,0,0,1-1.976-2.889c1.025-2.645,2.134-5.306,3.292-7.9.789-1.77,1.625-3.531,2.483-5.227a2.121,2.121,0,1,1,3.786,1.916c-.826,1.633-1.633,3.329-2.393,5.039-1.13,2.535-2.213,5.128-3.212,7.707A2.119,2.119,0,0,1,1400.22,344.092Zm142.612-30.756a2.1,2.1,0,0,1-1.109-.315c-3.854-2.365-7.962-4.666-12.208-6.842a2.122,2.122,0,0,1,1.935-3.778c4.344,2.226,8.546,4.583,12.494,7a2.122,2.122,0,0,1-1.111,3.93Zm-122.56-3.078a2.119,2.119,0,0,1-1.541-3.576,69.5,69.5,0,0,1,11.018-9.506,2.121,2.121,0,1,1,2.412,3.489,65.333,65.333,0,0,0-10.344,8.926A2.114,2.114,0,0,1,1420.272,310.258Zm86.8-13.863a2.1,2.1,0,0,1-.687-.115A138.824,138.824,0,0,0,1493,292.416a2.121,2.121,0,0,1,.962-4.132,143.151,143.151,0,0,1,13.8,3.982,2.121,2.121,0,0,1-.687,4.129Zm-52.864-5.254a2.123,2.123,0,0,1-.432-4.2,78.115,78.115,0,0,1,14.429-1.586,2.121,2.121,0,1,1,.082,4.241,73.519,73.519,0,0,0-13.642,1.5A2.057,2.057,0,0,1,1454.211,291.142Z" transform="translate(-704.823 4947.646)" fill="#f0d69c"/>
    <g id="Group_40201" data-name="Group 40201" transform="translate(142.781 5544.466)">
      <path id="Path_29976-2" data-name="Path 29976" d="M1413.91,537.173s-153.289,20.039-167.325-4.952S1352.907,489.868,1413.91,537.173Z" transform="translate(-1221.177 -200.382)" fill="#bda169"/>
      <path id="Path_29977-2" data-name="Path 29977" d="M1430.784,576.8s-46.477-76.415-127.828-91.691-71.031,55.965-2.532,54.394S1430.784,576.8,1430.784,576.8Z" transform="translate(-1238.052 -240.004)" fill="#bda169"/>
      <path id="Path_29978-2" data-name="Path 29978" d="M1446.46,627.467s-68.107-110.7-108.979-148.436-69.752-50.2-88.382-35.042-8.649,55.275,41.244,83.4,102.146,72.538,142.748,122.785Z" transform="translate(-1240.357 -313.386)" fill="#bda169"/>
      <path id="Path_29979-2" data-name="Path 29979" d="M1378.99,727.072S1339.444,612.254,1275.848,517.6c-59.677-88.815-33.6-142.664,6.219-123.437,47.61,22.983,91.468,146.352,109.4,313.808Z" transform="translate(-1186.258 -390.281)" fill="#bda169"/>
      <g id="Group_40190-2" data-name="Group 40190" transform="translate(24.663 31.132)" opacity="0.63">
        <path id="Path_29980-2" data-name="Path 29980" d="M1379.282,529.87a4.233,4.233,0,0,0,.351-8.316c-67.914-15.708-124.129-6.806-126.484-6.417a4.233,4.233,0,0,0,1.295,8.365l.082-.013c.558-.089,56.99-9,123.191,6.313A4.223,4.223,0,0,0,1379.282,529.87Z" transform="translate(-1225.702 -223.594)" fill="#fff"/>
        <path id="Path_29981-2" data-name="Path 29981" d="M1397.775,567.19a4.232,4.232,0,0,0,2.477-7.091,232.9,232.9,0,0,0-98.514-61.653c-28.489-9.044-48.764-9.59-49.613-9.608a4.232,4.232,0,1,0-.189,8.462c.981.024,79.881,2.708,142.142,68.605A4.237,4.237,0,0,0,1397.775,567.19Z" transform="translate(-1239.453 -261.601)" fill="#fff"/>
        <path id="Path_29982-2" data-name="Path 29982" d="M1410.7,620.606a4.275,4.275,0,0,0,1.458-.493,4.227,4.227,0,0,0,1.638-5.76c-38.107-68.168-80.287-108.961-108.959-131.179-31.267-24.228-53.3-32.153-54.221-32.478a4.232,4.232,0,1,0-2.831,7.977h0c.215.079,21.955,7.949,52.223,31.477,27.945,21.725,69.088,61.622,106.379,128.327A4.246,4.246,0,0,0,1410.7,620.606Z" transform="translate(-1244.958 -323.839)" fill="#fff"/>
        <path id="Path_29983-2" data-name="Path 29983" d="M1356.913,650.341a4.215,4.215,0,0,0,2.789-1.657l2.242-2.989-.774-2.142c-32.318-89.662-67.564-165.7-110.925-239.309a4.239,4.239,0,0,0-7.314,4.289c42.757,72.582,77.587,147.579,109.519,235.849a4.238,4.238,0,0,0,4.462,5.959Z" transform="translate(-1185.719 -402.156)" fill="#fff"/>
      </g>
    </g>
    <g id="Group_40198" data-name="Group 40198" transform="translate(78.671 5468.508)">
      <g id="Group_40195" data-name="Group 40195" transform="translate(0 9.743)">
        <path id="Path_29994" data-name="Path 29994" d="M1124.141,505.685l-.084,18.246-.183,36.274h-83.627c-.325-8.57-.31-16.222-.168-22.388.225-9.928.776-16.036.776-16.036a48.75,48.75,0,0,1,10.255-8.528c15.26-9.561,34.916-11.1,49.993-10.452A138.323,138.323,0,0,1,1124.141,505.685Z" transform="translate(-852.849 -141.753)" fill="url(#linear-gradient-5)"/>
        <path id="Path_29995" data-name="Path 29995" d="M1150.9,569.8h-89.268a316.118,316.118,0,0,1,2.278-35.116,286.074,286.074,0,0,1,25.13-19.4c21.413-14.636,49.838-28.934,57.094-7.975a85.047,85.047,0,0,1,2.913,10.72C1152.624,535.142,1152.2,554.644,1150.9,569.8Z" transform="translate(-817.747 -151.352)" fill="url(#linear-gradient-5)"/>
        <path id="Path_29996" data-name="Path 29996" d="M1156.061,533.968s-26.189,24.2-42.233,28.21-88.233-53.477-112.3-81.551c0,0-14.707-8.022-25.4-16.041s-8.019-38.77-4.009-38.77,28.074,28.074,32.085,28.074-2.674-20.052,0-20.052,14.7,17.378,16.041,32.085c0,0,65.507,48.126,88.232,57.485,0,0,13.37-12.033,20.055-22.726C1128.535,500.683,1151.5,509.769,1156.061,533.968Z" transform="translate(-968.6 -266.375)" fill="url(#linear-gradient-7)"/>
        <path id="Path_29997" data-name="Path 29997" d="M1100.587,419.7s-2.674,5.348-16.044,10.7-26.737,20.052-36.1,38.77-21.389,48.126-21.389,48.126,17.381,29.411,41.444,26.74S1100.587,419.7,1100.587,419.7Z" transform="translate(-873.808 -276.299)" fill="url(#linear-gradient-8)"/>
        <path id="Path_29998" data-name="Path 29998" d="M1178.774,596.8c1.337,22.726,18.718,34.759,10.7,48.129s-100.266,26.737-127,10.693-22.729-21.389-12.033-37.433,13.37-44.115-4.011-68.181-6.685-49.463,6.685-80.211S1086.53,423,1086.53,423l29.411-5.348c5.348,8.022,12.033,8.022,34.759,16.044s34.043,20.443,34.043,20.443Z" transform="translate(-857.077 -279.607)" fill="url(#linear-gradient-9)"/>
        <path id="Path_29999" data-name="Path 29999" d="M1066.521,388.835s-3.225-19.667,15.863-23.486c20.052-4.008,37.431,26.74,26.737,68.181s0,48.129,0,48.129-26.38-.469-29.411-57.485Z" transform="translate(-810.151 -364.997)" fill="url(#linear-gradient-10)"/>
        <path id="Path_30000" data-name="Path 30000" d="M1065.74,376.825l4.208-3.534s16.044,6.685,17.378,34.759l-9.356,5.348Z" transform="translate(-811.084 -351.548)" fill="#fff6ee"/>
        <path id="Path_30001" data-name="Path 30001" d="M1049.969,452.485s-17.4-29.618-9.359-52.14c6.685-18.715,20.055-8.022,20.055-8.022s5.345-20.052,32.085-20.052c25.433,0,36.1,33.422,33.422,53.474-3.552,26.635-20.055,45.455-17.381,57.488S1049.969,452.485,1049.969,452.485Z" transform="translate(-855.275 -353.202)" fill="url(#linear-gradient-11)"/>
        <path id="Path_30002" data-name="Path 30002" d="M1085.841,401.849s0,37.43,16.044,49.463c0,0-4.011,24.063-30.748,24.063s-21.392-10.693-14.707-18.715,4.011-13.37,4.011-21.389S1085.841,401.849,1085.841,401.849Z" transform="translate(-834.999 -305.24)" fill="url(#linear-gradient-12)"/>
        <path id="Path_30003" data-name="Path 30003" d="M1041.847,414.114s3.264,43.937,21.389,54.811c13.37,8.022,36.1-26.737,37.433-40.1,0,0,9.359-1.337,8.022-14.707s-12.033-9.359-13.37,10.7c0,0-6.682-5.348-8.019-16.044,0,0-22.729-4.011-28.077-22.726C1059.225,386.04,1056.554,406.092,1041.847,414.114Z" transform="translate(-849.827 -330.875)" fill="url(#linear-gradient-13)"/>
        <path id="Path_30004" data-name="Path 30004" d="M1209.75,469.673s-3.67,44.391-8.019,49.466c-8.022,9.359-120.32,46.792-120.32,46.792s-5.348,10.693-16.041,13.367-21.391,20.055-26.74,17.381-4.008-9.359-2.674-21.392,10.7-21.389,17.38-22.726,17.378-2.674,17.378-2.674,82.888-49.466,92.246-56.148a86.275,86.275,0,0,0,2.674-21.392Z" transform="translate(-861.316 -195.261)" fill="url(#linear-gradient-14)"/>
        <path id="Path_30005" data-name="Path 30005" d="M1135.48,534.579s-1.337-90.907-28.074-102.94-26.737,33.422-24.063,54.814c1.995,15.973,1.337,50.8,1.337,50.8S1107.406,549.286,1135.48,534.579Z" transform="translate(-784.372 -260.168)" fill="url(#linear-gradient-15)"/>
      </g>
      <g id="Group_40196" data-name="Group 40196" transform="translate(549.369 17.787)">
        <path id="Path_30006" data-name="Path 30006" d="M1317.4,512.414s-1.337-38.77-2.674-78.877-6.685-53.474-24.063-50.8c0,0-5.348-25.4-40.107-9.359s-32.153,72.186-33.422,97.592a238.707,238.707,0,0,1-8.022,49.466S1292,560.54,1317.4,512.414Z" transform="translate(-1127.967 -368.065)" fill="url(#linear-gradient-16)"/>
        <path id="Path_30007" data-name="Path 30007" d="M1362.987,566.809H1198.722c2.433-19.9,5.9-33.39,9.052-42.272,2.713-7.736,5.188-11.978,6.519-13.915a11.267,11.267,0,0,1,.976-1.316l4.5-.354L1348.957,498.6c.708,1.586,1.387,3.225,2.024,4.881C1358.772,523.7,1361.813,548.736,1362.987,566.809Z" transform="translate(-1144.818 -156.4)" fill="url(#linear-gradient-17)"/>
        <path id="Path_30008" data-name="Path 30008" d="M1277.648,519.384s44.93-49.958,63.648-80.707c0,0,5.348-25.4,10.7-30.748S1356,423.971,1356,423.971s8.022-13.37,12.033-24.063,14.707-1.337,16.043,17.378-26.74,33.422-26.74,33.422-35.144,71.67-55.674,100.675Z" transform="translate(-1016.837 -323.739)" fill="url(#linear-gradient-18)"/>
        <path id="Path_30009" data-name="Path 30009" d="M1466.523,506.393s-18.715,25.4-34.759,26.74c-6.646.548-15.575-2.795-23.77-6.9a177.523,177.523,0,0,1-20.975-12.646c-.456-.333-.71-.508-.71-.508s-.173,1.927-.841,5.576a211.359,211.359,0,0,1-9.852,34.531c-9.359,25.4,0,45.455,6.682,60.159s8.022,21.392-33.422,34.759-96.255-5.348-102.939-12.03,9.358-52.14,12.033-66.844c1.431-7.849-1.712-22.928-4.96-35.28-2.834-10.8-5.736-19.533-5.736-19.533s-4.344,4.748-9.7,10.816c-8.57,9.7-19.706,22.807-19.706,25.28,0,4.011,4.011,14.707,4.011,14.707-8.022,8.019-33.422,14.7-33.422,14.7-17.378-22.726-9.359-36.1-.614-56.816s38.046-83.556,51.416-92.912,30.373-9.773,30.373-9.773c46.417,15.627,72.567,3.088,86.175,1.67s25.159,4.092,37.192,17.459,33.422,44.118,37.433,44.118,12.033-8.022,12.033-8.022C1459.838,486.341,1466.523,506.393,1466.523,506.393Z" transform="translate(-1178.16 -283.17)" fill="url(#linear-gradient-19)"/>
        <path id="Path_30010" data-name="Path 30010" d="M1238.911,399.16s2.674,30.748-5.348,42.778-21.389,13.37-21.389,13.37,8.022,4.011,26.737,16.041,48.129,21.392,68.181-14.7c0,0-25.4,1.337-32.085-10.7-8.441-15.192-2.674-26.737-2.674-26.737Z" transform="translate(-1123.006 -317.644)" fill="url(#linear-gradient-20)"/>
        <path id="Path_30011" data-name="Path 30011" d="M1286.373,406.442s0,54.785-16.857,57.595c-7.222,1.2-19.908-3.02-27.927-10.68-9.252-8.837-13.37-21.389-13.37-21.389s-6.417-5.731-9.359-12.033c-2.081-4.462-.181-8.6,1.337-9.359,10.735-5.366,11.39,14.127,11.39,14.127a33.574,33.574,0,0,0,8.429-25.285s21.072-1.405,28.094-19.667C1268.111,379.752,1273.732,400.821,1286.373,406.442Z" transform="translate(-1113.651 -349.114)" fill="url(#linear-gradient-21)"/>
        <path id="Path_30012" data-name="Path 30012" d="M1265.017,498.446c.669-5.054.173-14.345-6.058-29.92-10.693-26.737-2.672-38.77-2.672-38.77s-1.337,20.055,16.041,42.781c10.416,13.622,13.142,28.677,13.664,38.555A177.536,177.536,0,0,1,1265.017,498.446Z" transform="translate(-1056.158 -268.03)" fill="#fbc44c"/>
        <path id="Path_30013" data-name="Path 30013" d="M1230.581,446.076l-14.319,46.27c-2.834-10.8-5.736-19.533-5.736-19.533s-4.344,4.748-9.7,10.816Z" transform="translate(-1141.413 -241.568)" fill="#fbc44c"/>
        <path id="Path_30014" data-name="Path 30014" d="M1181.485,489.7s26.976,38.227,41.682,56.945,20.052,29.411,28.074,28.074,13.37-8.022,16.044-9.359,17.378,12.033,24.063,12.033-1.337-26.737-9.359-30.748-29.411,12.03-29.411,12.03l-36.951-83.936A38.971,38.971,0,0,1,1181.485,489.7Z" transform="translate(-1172.769 -195.083)" fill="url(#linear-gradient-22)"/>
      </g>
      <g id="Group_40197" data-name="Group 40197" transform="translate(337.093)">
        <path id="Path_30015" data-name="Path 30015" d="M1114.045,504.574s-4.011,16.041-2.674,40.107h80.211a320.172,320.172,0,0,0,0-40.107Z" transform="translate(-1074.628 -128.925)" fill="url(#linear-gradient-5)"/>
        <path id="Path_30016" data-name="Path 30016" d="M1216.447,501.514s4.333,24.063,3,48.129H1139.23a320.173,320.173,0,0,1,0-40.107Z" transform="translate(-1029.975 -133.887)" fill="url(#linear-gradient-5)"/>
        <path id="Path_30017" data-name="Path 30017" d="M1198.1,405.582s-13.37,6.682-30.748,13.367S1121.9,439,1113.874,459.056s-8.022,69.518-12.03,77.54-6.685,10.693-2.674,14.7-9.353,16.71,4.682,23.062,24.729,7.686,24.729,7.686l14.7-4.011s1.337,24.066-2.674,44.118-10.693,38.77-4.008,46.792,34.758,12.03,82.885,10.693,69.518-16.041,65.507-26.737-10.7-56.148-9.359-98.929l39.971,2.252s8.158-10.274,4.147-16.956,5.347-6.685,2.674-14.707a179.324,179.324,0,0,1-9.359-38.77c-2.674-20.052-10.693-46.789-26.737-56.148s-57.438-18.718-61.473-24.063S1198.1,405.582,1198.1,405.582Z" transform="translate(-1097.186 -293.297)" fill="url(#linear-gradient-25)"/>
        <path id="Path_30018" data-name="Path 30018" d="M1123.313,487.412,1119.3,428.59s-9.356,64.17-8.019,76.2,147.055-4.008,147.055-4.008,0-46.792-6.685-72.192l-5.345,64.17Z" transform="translate(-1074.54 -252.135)" fill="#ef3c6b"/>
        <path id="Path_30019" data-name="Path 30019" d="M1145.213,458.135s-32.7,3.463-43.395,24.855,20.055,28.074,60.162,10.7,56.148-28.077,70.855-30.751-33.422-9.356-33.422-9.356A338.8,338.8,0,0,0,1145.213,458.135Z" transform="translate(-1093.152 -211.618)" fill="url(#linear-gradient-26)"/>
        <path id="Path_30020" data-name="Path 30020" d="M1130.613,401.126s9.272,10.746,7.935,29.461,21.389,26.737,34.759,17.378,2.674-17.378,4.01-49.463Z" transform="translate(-1042.983 -300.924)" fill="url(#linear-gradient-27)"/>
        <path id="Path_30021" data-name="Path 30021" d="M1135.31,393.969s-1.015-5.012-8.5-4.111,2.647,23.7,16.272,24.32l47.909,2.168s14.413-8.035,12.552-21.769-18.689,1.636-18.689,1.636Z" transform="translate(-1053.275 -316.545)" fill="url(#linear-gradient-28)"/>
        <path id="Path_30022" data-name="Path 30022" d="M1127.19,410.621s9.917,55.055,34.686,56.177S1193,409.877,1193,409.877L1182.976,384.6l-7.039-9.008-37.158-1.683-5.458,10.924Z" transform="translate(-1048.534 -340.797)" fill="url(#linear-gradient-29)"/>
        <path id="Path_30023" data-name="Path 30023" d="M1146.182,409.314s-5.008,28.318-11.086,25.56-12.447-26.624-12.109-34.056,3.094-13.511,11.54-8.166c0,0-8.279-9.063-1.694-17.452s16.607-10.418,36.311-7.041,36.311-7.044,40.026-6.876-3.149,14.751-3.149,14.751,9.005-7.039,11.482-6.926-1.009,22.293-8.722,28.15c0,0-3.484,39.879-10.353,36.762-6.079-2.755-11.152-27.806-11.152-27.806S1174.445,415.558,1146.182,409.314Z" transform="translate(-1055.37 -361.28)" fill="url(#linear-gradient-30)"/>
        <path id="Path_30024" data-name="Path 30024" d="M1292.7,481.1c2.165,11.912-22.726,22.729-65.507,8.022s-81.548-26.737-81.548-26.737-9.359,8.022-33.422,10.7c0,0,0-18.718,10.693-24.066s22.729-2.674,29.411-2.674,70.855,2.674,94.92,8.022S1290.025,466.4,1292.7,481.1Z" transform="translate(-1072.805 -224.435)" fill="url(#linear-gradient-31)"/>
      </g>
    </g>
    <g id="Group_40199" data-name="Group 40199" transform="translate(142.781 5883.535)">
      <path id="Path_30025" data-name="Path 30025" d="M1783.983,532.789H970.666c-3.2,0-5.8-2.946-5.8-6.583h0c0-3.636,2.6-6.585,5.8-6.585h813.316c3.206,0,5.8,2.949,5.8,6.585h0C1789.785,529.842,1787.189,532.789,1783.983,532.789Z" transform="translate(-964.866 -519.621)" stroke="rgba(0,0,0,0)" stroke-width="1" fill="url(#linear-gradient)"/>
    </g>
  </g>
</svg>
